<?xml version="1.0" encoding="UTF-8"?>
<svg id="Layer_2" data-name="Layer 2" xmlns="http://www.w3.org/2000/svg" viewBox="0 0 125.34 128.78">
  <defs>
    <style>
      .cls-1 {
        fill: #ec224b;
      }

      .cls-2 {
        fill: #70bf44;
      }
    </style>
  </defs>
  <g id="Layer_1-2" data-name="Layer 1">
    <g>
      <path class="cls-2" d="M24.4,114.98c9.97,8.08,22.2,12.86,35,13.7,27.86,1.61,46-17.2,48.84-20.25,17-18.25,17.19-40.17,17.09-45.38-.22-9.2-2.37-18.26-6.32-26.57-1.92,12.67-3.84,25.3-5.75,37.91l-14.86-11.34c-13.58,29.32-41.81,49.12-74,51.93Z"/>
      <path class="cls-1" d="M112.4,25.42C110.6,22.99,92.62-.33,61.49,0,32.01,.31,14.95,21.57,12.8,24.34,4.49,35.18,0,48.46,0,62.12l3.91-3.23c.31-.24,.75-.19,1,.1l5.67,6.85c.23,.31,.18,.74-.1,1l-7.08,5.98c-.31,.23-.74,.19-1-.1l-2-2.34c.42,4.58,1.32,9.1,2.68,13.49,10.87,2.88,22.25,3.35,33.32,1.38,5-.92,32.9-6.05,45-28.33,1.05-1.93,1.94-3.94,2.69-6l-12.86-13.14,41.17-12.36ZM18.8,61.8l5.47-4.08c.32-.22,.76-.16,1,.15l4.37,5.86c.22,.32,.16,.76-.15,1l-5.46,4.08c-.32,.21-.75,.15-1-.15l-4.37-5.86c-.21-.32-.15-.75,.14-1Zm11.29,17.33l-6.14,4.58c-.32,.23-.76,.16-1-.15l-4.66-6.24c-.23-.32-.16-.76,.15-1l6.14-4.58c.32-.23,.76-.16,1,.15l4.66,6.24c.22,.32,.16,.76-.15,1h0Zm13.25-3l-5.86,4.38c-.32,.22-.76,.16-1-.15l-4.7-6.3c-.22-.32-.16-.76,.15-1l5.86-4.37c.32-.22,.76-.16,1,.15l4.69,6.29c.2,.31,.14,.71-.14,.95v.05Z"/>
    </g>
  </g>
</svg>