<?xml version="1.0" encoding="UTF-8"?>
<svg id="Layer_2" data-name="Layer 2" xmlns="http://www.w3.org/2000/svg" viewBox="0 0 699.68 128.78">
  <defs>
    <style>
      .cls-1 {
        fill: #ec224b;
      }

      .cls-2 {
        fill: #70bf44;
      }
    </style>
  </defs>
  <g id="Layer_1-2" data-name="Layer 1">
    <path class="cls-2" d="M24.4,114.98c9.97,8.08,22.2,12.86,35,13.7,27.86,1.61,46-17.2,48.84-20.25,17-18.25,17.19-40.17,17.09-45.38-.22-9.2-2.37-18.26-6.32-26.57-1.92,12.67-3.84,25.3-5.75,37.91l-14.86-11.34c-13.58,29.32-41.81,49.12-74,51.93Z"/>
    <path class="cls-1" d="M112.4,25.42C110.6,22.99,92.62-.33,61.49,0,32.01,.31,14.95,21.57,12.8,24.34,4.49,35.18,0,48.46,0,62.12l3.91-3.23c.31-.24,.75-.19,1,.1l5.67,6.85c.23,.31,.18,.74-.1,1l-7.08,5.98c-.31,.23-.74,.19-1-.1l-2-2.34c.42,4.58,1.32,9.1,2.68,13.49,10.87,2.88,22.25,3.35,33.32,1.38,5-.92,32.9-6.05,45-28.33,1.05-1.93,1.94-3.94,2.69-6l-12.86-13.14,41.17-12.36ZM18.8,61.8l5.47-4.08c.32-.22,.76-.16,1,.15l4.37,5.86c.22,.32,.16,.76-.15,1l-5.46,4.08c-.32,.21-.75,.15-1-.15l-4.37-5.86c-.21-.32-.15-.75,.14-1Zm11.29,17.33l-6.14,4.58c-.32,.23-.76,.16-1-.15l-4.66-6.24c-.23-.32-.16-.76,.15-1l6.14-4.58c.32-.23,.76-.16,1,.15l4.66,6.24c.22,.32,.16,.76-.15,1h0Zm13.25-3l-5.86,4.38c-.32,.22-.76,.16-1-.15l-4.7-6.3c-.22-.32-.16-.76,.15-1l5.86-4.37c.32-.22,.76-.16,1,.15l4.69,6.29c.2,.31,.14,.71-.14,.95v.05Z"/>
    <path class="cls-1" d="M198.05,20.71l46.35,83.87h-40.2l-5.6-10.61h-19.41l-17.09-.05-2.89-.06-3.81,7.08c-.66,1.4-1.45,2.74-2.34,4-.41,.49-1.03,.78-1.67,.77-1.33,0-2-.58-2-1.74,.19-1,.57-1.96,1.13-2.81,.75-1.37,3.39-5.88,7.92-13.53l35.08-59.06,4.53-7.86Zm-18,38.08l-10.12,17-8.1,14,17.28,.23,17.35-.23-16.41-31Z"/>
    <path class="cls-1" d="M249.4,25.47h29.67l-.23,21.91c2.7-2.41,5.79-4.35,9.13-5.74,3.12-1.27,6.45-1.93,9.82-1.92,7.58,0,14.4,2.76,20.46,8.29,6.84,6.22,10.26,14.32,10.26,24.29s-3.52,18.76-10.55,25.44c-5.21,5.2-12.28,8.12-19.64,8.12-3.49,.07-6.95-.61-10.15-2-3.44-1.69-6.54-3.98-9.15-6.78v7.53h-29.62v-2.61l.17-28.11-.06-20.05-.11-28.37Zm29.44,26.66v39.53c1.93,2.11,3.98,4.12,6.14,6,3.1,2.51,5.9,3.76,8.41,3.76,1.58,.12,3.01-.94,3.36-2.49,.33-1.93,.47-3.89,.41-5.85V51.55c0-2.94-.26-4.94-.78-6-.58-1.1-1.77-1.73-3-1.59-2.28,.12-4.49,.81-6.44,2-2.93,1.75-5.65,3.82-8.12,6.17h.02Z"/>
    <path class="cls-1" d="M366.92,39.72c6.26,.01,12.39,1.8,17.68,5.16,5.09,3.12,9.17,7.63,11.76,13,2.38,4.76,3.62,10.02,3.6,15.35-.02,3.83-.74,7.62-2.12,11.19-1.34,3.64-3.29,7.02-5.77,10-3.36,3.97-7.64,7.05-12.46,9-3.99,1.66-8.26,2.51-12.58,2.5-7.1,.06-14.03-2.22-19.7-6.5-4.53-3.28-8.11-7.69-10.38-12.8-1.97-4.4-2.98-9.18-2.95-14-.22-9.11,3.59-17.86,10.4-23.91,6.12-5.71,14.15-8.92,22.52-8.99Zm-1.68,3.71l-.18,58.48c1.2,.08,2,.12,2.5,.12,5.46-.03,10.8-1.59,15.41-4.52,4.59-2.8,8.28-6.87,10.61-11.72,1.89-3.99,2.86-8.35,2.82-12.77,0-9.33-3.44-16.89-10.31-22.68-5.57-4.67-11.62-7-18.15-7-.54-.02-1.47,.02-2.7,.09Z"/>
    <path class="cls-1" d="M451.56,75.25c9.13-16,14.64-26.37,16.53-31.12,.57-1.5,1.3-2.94,2.16-4.3,.42-.59,1.1-.93,1.82-.93,.75,0,1.47,.22,2.08,.66,.53,.31,.87,.87,.92,1.48-.18,1.11-.62,2.16-1.27,3.07l-33.77,60.64-1.79,3.31-15.43-24.29-5.1-8-5.31-8.22-4.58-7.25-13-19h36l14,23.25,6.74,10.7Z"/>
    <path class="cls-1" d="M498.31,74.79v18c0,3.47,.21,5.68,.64,6.6,.81,1.78,2.73,2.67,5.74,2.67,4.68-.05,9.26-1.32,13.3-3.68,4.49-2.54,8.38-6.02,11.41-10.2,.66-.98,1.42-1.9,2.26-2.73,.42-.37,.95-.57,1.51-.58,.62,0,1.22,.26,1.62,.73,.43,.51,.66,1.16,.64,1.83,0,1.62-1.3,3.8-3.89,6.54-3.61,3.67-7.92,6.58-12.66,8.58-4.63,2.11-9.66,3.24-14.75,3.31-18.06-.17-32.66-14.75-32.86-32.81,.02-4.13,.8-8.23,2.31-12.08,1.44-3.86,3.6-7.41,6.38-10.46,3.1-3.42,6.9-6.15,11.13-8,10.73-4.73,23.16-3.38,32.63,3.53,9.04,6.57,13.52,16.1,13.44,28.58h-30.89l-7.96,.17Zm14.84-3.83v-16.88c-.08-3.63-.16-5.8-.23-6.51-.09-.73-.37-1.42-.81-2-1.09-1.5-3.29-2.25-6.61-2.25s-5.45,.87-6.38,2.6c-.54,1.04-.81,3.76-.81,8.16v16.88l7.09,.29,7.75-.29Z"/>
    <path class="cls-1" d="M611.4,25.47v4l-.36,31.78,.35,43.29h-35.47l.35-47.35-.41-28.92,.06-2.84,35.48,.04Z"/>
    <path class="cls-1" d="M677.17,29.35l-.29,18.14-.17,17.21,.17,39.88h-35.35l.35-46.19-.18-15.71-.17-13.33-7.65,.17-11,.24-1.62,.05c-1.85,0-2.78-.69-2.78-2.08-.15-.99,.53-1.92,1.52-2.08,.03,0,.07,0,.1-.01,.94-.12,1.89-.18,2.84-.17h71.16c1.47-.06,2.95,.06,4.4,.34,.79,.33,1.27,1.15,1.16,2,0,1.31-1,2-3,2l-5-.18-13.33-.23-1.16-.05Z"/>
  </g>
</svg>